# Blender 4.2.2 LTS
# www.blender.org
o tiger_salamander
v 4.223197 0.303682 -0.274744
v 5.116896 0.294757 -0.403344
v 4.925639 0.313856 -0.552450
v -1.725409 -0.574896 -1.396324
v -1.789509 -0.548290 -1.571141
v -1.332642 -0.578762 -1.444675
v -2.124803 1.111121 0.082188
v -2.111543 0.701770 -0.356266
v -2.255466 0.938526 -0.457523
v -2.310201 1.104338 -0.362677
v -3.757393 1.208130 -0.174077
v -3.527140 1.313950 -0.235208
v -3.552808 1.299681 -0.362975
v -3.896415 0.545213 -0.394782
v -4.110576 0.403824 0.029670
v -4.071606 0.635069 -0.335392
v -3.925377 0.411100 -0.107204
v 1.686338 -0.650830 -0.006273
v 1.042823 -0.458449 -0.451230
v 2.320802 -0.471248 -0.236267
v 4.483970 0.283188 0.060530
v -3.383010 1.422206 0.115177
v -4.227850 0.548039 0.036476
v -4.243669 0.658457 0.065651
v -2.739001 -0.038600 0.156293
v -2.970443 0.352796 -0.250145
v -2.630200 0.042002 -0.090431
v 4.731855 -0.199132 0.173366
v -4.175025 0.944309 0.211725
v -4.125984 0.971077 -0.208811
v -4.255640 0.824154 0.244540
v -4.231677 0.748726 -0.119257
v -3.211653 0.294301 -0.008047
v -1.197960 1.154263 0.326801
v 0.440516 1.189269 0.148108
v -0.055680 0.869955 -0.369791
v -3.544500 1.312907 0.423770
v -4.132949 0.522322 0.456478
v 2.840349 -0.645276 -0.060559
v 2.368948 -0.546560 0.381231
v -2.711860 -0.115883 0.495954
v -2.180106 -0.351238 0.620416
v 2.120778 -0.659779 1.846154
v 2.196793 -0.568825 1.956795
v 1.904091 -0.723120 1.953744
v 4.780995 -0.731210 -0.090493
v 3.209524 -0.582539 0.492362
v 2.083739 -0.526096 1.839731
v -3.795085 1.126652 0.579857
v -2.901584 1.344289 0.776836
v -2.773421 1.472169 0.247672
v -1.739378 0.956807 0.020281
v -1.979210 1.213270 0.684838
v 1.235243 1.237376 0.504453
v 1.721702 1.004333 0.792127
v 2.250436 0.982231 0.580304
v -3.708569 1.084187 0.741405
v -3.467479 1.121226 0.889387
v -1.250168 1.084384 1.075557
v -3.422317 0.328295 1.111295
v -3.550700 0.653331 0.973818
v -3.587175 0.416000 0.945609
v -2.378384 -0.248552 1.094761
v -1.918408 -0.320959 1.235655
v -1.199596 -0.517555 0.936696
v -3.204710 1.024935 1.115253
v -3.145161 1.230159 0.878277
v 1.999616 -0.680571 2.232612
v 2.232050 -0.702007 2.027683
v 2.295949 -0.608937 2.147947
v -2.382860 0.577194 1.188964
v -2.277667 0.936423 1.010949
v -2.562669 0.930562 1.180325
v -3.208239 0.714308 1.226086
v -2.827954 0.667740 1.307177
v -2.516977 0.561462 1.243706
v -2.195209 0.621703 1.152163
v -1.708505 0.220383 1.243562
v -1.591131 0.648537 1.339197
v -3.435440 0.723564 1.065232
v -2.927551 0.094131 1.175538
v -2.724984 0.061904 1.042111
v -2.650237 0.237217 1.194629
v -1.545410 -0.305514 1.258247
v -1.304485 -0.229557 1.211236
v -0.542142 -0.397233 1.162296
v 0.081573 0.819593 1.344427
v 0.029853 0.344362 1.618156
v -0.734706 0.315755 1.475283
v -0.302652 -0.107178 1.535513
v 0.086981 -0.253377 1.414135
v 0.627919 0.030808 1.469224
v 0.875255 0.485967 1.393162
v -1.721992 -0.252722 1.872109
v -1.691789 -0.118969 1.599097
v -1.603890 -0.320305 1.544176
v -2.189925 -0.677552 1.893130
v -1.914286 -0.508800 2.130803
v -1.955612 -0.583109 1.950705
v -1.602683 -0.641388 2.278027
v -1.229238 -0.481529 1.868970
v -1.345235 -0.412271 2.131299
v -1.587920 -0.477304 2.249958
v -2.025447 -0.644186 2.084588
v -0.663992 -0.031298 1.430081
v 2.197779 -0.606625 2.550746
v 2.119919 -0.711018 2.562089
v 2.414862 -0.703699 2.240219
v -1.243292 0.064506 1.398600
v -1.241101 -0.312937 1.646752
v -1.655108 -0.519133 1.744541
v -1.089916 -0.000027 1.732892
v -1.320318 -0.232427 1.188828
v 1.266619 0.022212 1.218991
v 2.649572 -0.631102 2.389117
v 2.756609 -0.594343 2.025434
v 2.867641 -0.473216 2.011629
v -0.771909 0.168984 1.450955
v 2.567290 -0.587269 2.193781
v -2.216217 1.020086 0.999705
v -2.815030 -0.059814 0.844412
v -3.061972 0.301922 1.262668
v -2.752473 0.398501 1.275388
v -2.441623 0.460928 1.211447
v -1.940326 0.167241 1.317973
v -3.476394 0.882827 1.038968
v 2.737369 -0.617580 -2.256019
v 2.864560 -0.493351 -1.883575
v 2.623502 -0.609025 -2.110001
v 2.572829 -0.197735 0.983537
v 2.528313 -0.015241 0.775460
v 2.635317 0.101745 1.121383
v 2.887383 0.146625 1.131787
v 2.758248 0.117650 0.636756
v 2.844612 -0.527701 0.760044
v 2.832163 -0.511809 1.169877
v 2.962080 -0.094462 1.572126
v 2.670326 -0.319347 1.840953
v 2.249277 -0.696925 1.659672
v 2.538685 -0.485711 1.483638
v 2.737834 -0.303122 -1.753200
v 2.443038 -0.517184 2.171090
v 3.074715 -0.548662 1.645847
v 2.541870 -0.393313 1.642398
v 2.449117 -0.556515 -2.050723
v 2.520056 -0.615816 -1.906572
v 3.043362 -0.108765 1.135356
v 2.374095 -0.631732 -2.414290
v -3.845398 0.727712 0.813986
v -4.202416 0.640581 0.253435
v -4.069046 0.682446 0.505233
v -4.106310 0.736805 0.524387
v -4.213915 0.687564 0.323748
v -3.948520 0.697253 0.687854
v -3.610096 0.298385 0.718090
v -3.715835 0.385150 0.591342
v -3.686881 0.303482 0.499246
v 1.450944 -0.398942 0.910133
v 0.823780 -0.569197 0.660211
v -3.856025 0.428397 0.658021
v -3.984088 0.447070 0.507569
v -3.784846 0.393517 0.463279
v 2.373483 -0.519141 -2.386768
v -3.608199 0.371358 0.133318
v 2.077640 -0.577811 -2.305198
v 2.239088 -0.668065 -2.122914
v 2.037051 -0.650833 -2.252651
v -4.050592 0.433858 0.338316
v -3.881919 0.481144 0.705780
v -3.368099 0.145889 0.674524
v -3.522113 0.252404 0.541379
v -3.305463 0.176211 0.260063
v -2.997335 -0.063679 0.743333
v 2.244016 -0.584255 -1.876169
v 2.443459 0.255443 0.831617
v 2.301847 0.604222 0.828202
v 2.713638 0.508249 0.703023
v -2.471799 0.089174 1.162704
v -3.821905 0.935149 0.784147
v -3.720585 0.986093 0.806641
v -3.577161 0.762306 1.000487
v 1.999528 -0.707609 -1.957738
v 1.964360 -0.628968 -1.966100
v 2.176791 -0.524289 -1.826584
v 3.573145 0.313868 0.414764
v -3.983307 0.951195 0.600721
v 2.194195 -0.623742 -1.636189
v 3.112807 0.621439 -0.288224
v 1.579906 1.204509 0.074645
v -3.950574 1.049542 0.481827
v 4.135231 -0.724568 -0.259051
v 2.401888 -0.689487 -1.487668
v -2.663416 1.350796 -0.342653
v 2.642977 -0.447113 -1.169462
v 2.418440 -0.510757 -1.428711
v 2.978840 -0.526730 -1.421765
v -1.778396 -0.301541 -0.477143
v -1.136522 -0.575905 0.338958
v -1.151390 0.908501 -0.062303
v 2.451415 -0.272803 -1.223852
v 4.775952 0.136379 -0.733868
v -0.868480 0.500356 -0.581676
v -3.725098 1.139332 -0.395434
v -3.621042 1.152242 -0.452177
v -4.006330 0.960309 -0.364199
v -3.790810 1.131480 -0.335545
v -2.019289 -0.117424 -0.633927
v 2.292913 -0.267747 -0.388263
v 3.091557 -0.551609 -0.478789
v 5.418194 0.277377 -1.567402
v 5.070724 0.077831 -1.244807
v 5.470077 -0.665970 -1.052357
v 4.935949 -0.682064 -0.910253
v 5.386830 -0.618892 -2.463997
v 5.660968 -0.436937 -1.395907
v 5.574975 0.045706 -1.960504
v 5.545508 0.043171 -1.105542
v 5.150608 -0.571195 -1.905554
v 5.183912 0.124450 -1.711355
v 5.030351 -0.127362 -2.502360
v 5.010738 -0.549350 -2.799090
v 5.378492 -0.421079 -2.884067
v 5.177527 0.258214 -2.796558
v 4.400708 -0.532377 -3.738671
v 4.886340 0.213459 -3.003867
v 4.506640 -0.179342 -3.224983
v 4.641316 -0.153174 -3.647639
v 3.738691 -0.456765 -3.772000
v 4.442451 -0.511827 -3.511826
v 3.826678 0.020999 -3.610223
v 3.712139 0.123838 -3.801659
v 3.109842 -0.012657 -3.631426
v 3.060233 -0.529091 -3.775103
v 3.659969 -0.380429 -4.045939
v -1.686548 -0.720456 2.648298
v -1.776923 -0.596415 2.410818
v 2.523503 -0.295669 -2.728512
v 2.649829 -0.171252 -3.220576
v 2.412812 -0.251852 -2.832510
v 2.440600 -0.610244 -2.806034
v 2.559394 -0.531435 -3.290660
v 2.772274 -0.125681 -3.590432
v -1.934931 -0.706012 2.001370
v -1.975661 -0.632781 2.336059
v 4.259710 0.172520 -3.564393
v -2.075784 -0.720726 2.631662
v 5.053006 -0.565856 -1.443561
v 4.655302 -0.433908 -0.887136
v 4.565105 -0.693845 -0.625197
v 4.385189 -0.026400 -0.626766
v 5.337774 -0.384486 -0.444114
v 3.169611 -0.359598 -0.614442
v 3.854592 -0.400831 -0.577245
v -2.012433 -0.564725 2.513802
v 2.940014 -0.439597 -0.971934
v 2.982153 -0.235365 -0.856777
v 2.497232 0.115825 -1.144188
v 2.442837 0.018652 -0.359732
v 2.283754 -0.483528 -2.001332
v -2.293189 -0.671368 2.343189
v 2.921011 0.000066 -1.275221
v 2.043408 -0.641730 -1.470205
v 3.996093 0.004661 -0.550132
v 4.254456 -0.536995 -0.609683
v 2.774251 0.223714 -0.468693
v 2.031857 0.778418 -0.300875
v 1.930845 0.473599 -0.535629
v 1.681860 1.047780 -0.195314
v -0.586534 0.469585 -0.707677
v 0.539972 0.948410 -0.368037
v -1.386524 -0.238027 -0.492011
v -0.830272 -0.034787 -0.631212
v -0.424374 -0.190844 -0.594595
v -1.142766 -0.534378 -0.916932
v -1.496008 -0.594195 -1.045574
v -0.029417 0.454335 -0.725814
v -0.364179 0.198526 -0.757539
v -1.159364 -0.100425 -0.589101
v 1.638525 0.130932 -0.695724
v 2.394853 0.173733 -0.410710
v -1.566304 -0.243356 -0.967346
v -1.798804 0.037222 -0.707438
v -1.740533 0.261528 -0.580906
v -1.186339 0.039362 -0.581391
v -0.958308 -0.230094 -0.903753
v -1.133638 0.027647 -0.946935
v -1.544215 -0.111629 -1.028066
v -1.910802 -0.618267 -1.433521
v -1.021275 -0.429910 -1.180494
v -1.448384 -0.452302 -1.710970
v -1.641115 -0.464168 -1.784338
v -1.788358 -0.403951 -1.582187
v -1.291643 -0.340366 -0.707331
v -1.465048 0.207799 -0.407901
v -1.620008 -0.220554 -0.749076
v -2.574798 0.226607 -0.376348
v -2.237778 0.565539 -0.461495
v -1.421787 -0.612069 -1.782199
v 0.612637 -0.126264 -0.618084
v 1.165630 -0.247648 -0.607063
v 0.954024 0.227831 -0.750847
v 0.383013 0.242624 -0.798204
v 1.101374 0.649151 -0.602424
v -1.564627 -0.564582 -1.727325
v -3.838912 0.858395 -0.479734
v -3.978867 0.826202 -0.406606
v -2.611797 1.006625 -0.648852
v -2.843882 0.815241 -0.762565
v -3.121476 0.768682 -0.659873
v -3.055659 1.093464 -0.598965
v -2.735695 0.349215 -0.534919
v -2.991487 0.578117 -0.580435
v -3.041389 0.735897 -0.711219
v -2.587057 0.510507 -0.705335
v -2.492780 0.669087 -0.696765
v -3.526711 1.232232 -0.440043
v -3.599381 0.930156 -0.588755
v -3.176001 1.263097 -0.458290
v -2.803031 1.191681 -0.582383
v -3.574550 0.636602 -0.534595
v -3.312665 0.646164 -0.478681
v -3.684038 0.540512 -0.338357
v -4.146292 0.788123 -0.283232
v -2.888241 1.410772 -0.326754
v -0.046786 -0.484131 -0.172769
v -1.723379 -0.494507 -1.692735
v -1.950554 -0.640993 -1.740845
v -1.712022 -0.660699 -1.994863
v -3.273476 0.504336 -0.441213
v -4.158650 0.684045 -0.169236
v 2.529119 -0.418768 -1.931784
v -1.377517 0.310979 -0.432773
v 2.744113 0.221988 -1.004246
v 3.095794 -0.196505 0.557953
v 3.288428 -0.388089 0.523645
v 3.000543 -0.471170 1.141607
v 1.024578 0.655331 1.222627
v -1.374655 0.132110 1.736845
v -2.319567 0.743711 1.108249
v -3.442657 0.483001 -0.171868
v -3.517920 0.549393 -0.337183
v -3.004349 -0.054513 0.329184
v -1.521118 -0.274106 -0.628960
v -3.356315 0.175850 0.936336
v -3.989937 1.009990 0.557774
v -3.947221 0.990828 0.563637
v -3.955718 1.061260 0.567054
v -3.886142 1.092348 0.608736
v -3.847007 1.051748 0.644695
v -3.794040 1.103446 0.713459
v -3.830337 0.950091 0.714752
v -3.885801 0.933348 0.726106
v -3.976003 0.772306 -0.372316
v -3.776070 1.028675 0.791789
v -4.082819 0.727364 -0.269883
v -3.593958 1.174214 -0.419515
v -3.657345 1.193249 -0.348355
v -3.671209 1.250673 -0.329381
v -3.739589 1.183107 -0.351698
v 2.569328 -0.721401 1.633081
v 1.671048 -0.177372 1.126414
v -4.014846 0.739280 -0.310867
vn 0.0239 0.9950 0.0968
vn -0.0271 -0.9897 -0.1407
vn 0.8625 0.3827 -0.3312
vn 0.8138 0.4667 -0.3463
vn -0.4212 0.9068 -0.0167
vn -0.5235 -0.6934 -0.4951
vn -0.2831 -0.8580 -0.4286
vn 0.0724 -0.8731 -0.4821
vn 0.0169 0.9987 0.0479
vn -0.4367 0.8944 -0.0967
vn -0.9192 -0.0279 -0.3928
vn -0.4744 -0.7534 -0.4553
vn 0.5255 0.4404 0.7280
vn -0.5171 0.8559 -0.0058
vn -0.9149 0.3790 -0.1388
vn -0.3530 -0.7663 -0.5369
vn -0.0704 0.8778 -0.4738
vn -0.5132 0.8576 0.0352
vn -0.7657 -0.6290 0.1345
vn -0.2875 -0.9532 -0.0938
vn -0.3628 -0.9145 -0.1791
vn 0.4283 -0.8200 0.3798
vn 0.2841 -0.4048 0.8692
vn -0.4027 -0.1549 -0.9021
vn -0.5340 0.8341 0.1380
vn -0.1241 0.9710 0.2046
vn 0.3286 0.9149 -0.2345
vn -0.1109 0.9131 -0.3924
vn -0.0133 0.9944 -0.1045
vn 0.1960 0.8973 0.3955
vn -0.3628 0.8349 0.4138
vn -0.3767 0.8330 0.4052
vn 0.0747 0.8329 0.5484
vn -0.7025 0.0234 0.7113
vn -0.1929 -0.9726 0.1299
vn -0.2082 -0.9685 0.1362
vn -0.2372 0.7631 0.6012
vn 0.3308 -0.8232 0.4613
vn 0.4880 0.2686 0.8305
vn -0.1574 0.3335 0.9295
vn 0.2848 0.1680 0.9437
vn 0.3094 0.3863 0.8690
vn -0.2877 -0.1330 0.9484
vn -0.5741 0.0759 0.8153
vn -0.6003 -0.4938 -0.6292
vn 0.3146 -0.6958 0.6457
vn 0.0011 -0.8343 0.5514
vn 0.3292 -0.5860 0.7405
vn -0.1105 -0.7066 0.6990
vn -0.0588 0.5500 0.8331
vn -0.1818 -0.0459 0.9823
vn 0.1782 -0.3026 0.9363
vn 0.0698 -0.3163 0.9461
vn 0.2534 0.0239 0.9671
vn -0.9089 -0.3258 -0.2602
vn -0.2898 0.9064 -0.3075
vn 0.7224 -0.5193 0.4565
vn 0.4106 0.1177 0.9042
vn -0.7265 0.4077 0.5531
vn -0.3367 -0.6265 0.7029
vn 0.6693 -0.4336 0.6034
vn -0.0843 -0.7598 0.6446
vn -0.1310 -0.5132 0.8482
vn -0.0826 -0.6063 0.7909
vn 0.7264 -0.3746 -0.5762
vn -0.3004 -0.7418 0.5996
vn -0.6258 -0.4475 0.6389
vn 0.0439 -0.9981 -0.0427
vn 0.2022 -0.7205 -0.6633
vn -0.9429 -0.0822 -0.3226
vn 0.8871 -0.3438 -0.3082
vn 0.8483 -0.2874 -0.4447
vn -0.2856 0.9550 0.0795
vn -0.7863 -0.2073 0.5821
vn 0.4070 -0.5951 0.6930
vn 0.3640 -0.0423 0.9305
vn 0.7373 -0.6587 0.1504
vn -0.2337 -0.1010 0.9670
vn -0.1680 -0.9746 -0.1479
vn -0.0339 0.3023 0.9526
vn -0.2927 0.3283 0.8981
vn -0.1020 0.5721 0.8138
vn 0.1652 -0.8717 0.4614
vn -0.6448 0.0673 0.7613
vn -0.0617 0.0665 0.9959
vn 0.0877 -0.4010 0.9119
vn -0.3902 -0.0569 0.9190
vn 0.1039 -0.3267 0.9394
vn 0.2263 -0.1397 0.9640
vn 0.1861 0.4272 0.8848
vn 0.1778 -0.0661 0.9818
vn -0.2259 -0.1764 0.9580
vn -0.0236 0.4538 0.8908
vn -0.5782 -0.0141 0.8158
vn -0.4044 0.3114 0.8599
vn -0.4618 0.4837 0.7435
vn -0.0212 0.6891 0.7244
vn 0.4979 -0.2543 0.8291
vn 0.0709 0.8635 0.4993
vn 0.2314 -0.9438 0.2358
vn -0.9575 0.0819 0.2767
vn -0.4093 -0.9120 0.0263
vn -0.1748 0.9845 -0.0120
vn -0.1236 -0.9917 0.0347
vn -0.1720 0.8515 0.4954
vn -0.1870 0.8439 0.5029
vn -0.8196 -0.2518 -0.5146
vn -0.6143 0.2072 -0.7614
vn 0.5876 0.6858 -0.4294
vn -0.3616 0.8569 0.3674
vn -0.3848 -0.8448 -0.3718
vn 0.5965 -0.5465 0.5878
vn 0.3799 0.8151 0.4374
vn -0.7234 -0.3042 0.6198
vn 0.8586 0.2824 0.4278
vn -0.8002 0.4999 0.3315
vn -0.3458 -0.9153 -0.2064
vn -0.9800 0.1985 0.0129
vn -0.9968 0.0761 -0.0243
vn 0.8441 0.5175 0.1401
vn -0.5413 -0.7122 -0.4470
vn 0.8288 0.5028 -0.2456
vn -0.9595 0.0753 0.2713
vn -0.5468 0.8298 -0.1115
vn -0.2047 -0.9493 0.2386
vn -0.5816 -0.5473 0.6018
vn -0.4824 -0.0299 0.8755
vn -0.5357 -0.7399 0.4068
vn -0.8289 0.1684 0.5334
vn -0.7795 -0.5698 0.2602
vn 0.0863 -0.9107 0.4039
vn -0.2409 -0.9668 0.0851
vn -0.9753 -0.0574 0.2131
vn -0.8767 0.2196 0.4279
vn -0.5965 -0.7563 -0.2686
vn 0.3606 -0.6685 -0.6504
vn -0.5056 -0.8218 0.2628
vn -0.5190 -0.7567 0.3976
vn -0.5986 -0.6789 0.4252
vn -0.4812 -0.8660 -0.1361
vn -0.7071 -0.1937 0.6800
vn -0.6444 -0.2252 0.7308
vn -0.5400 -0.6950 0.4748
vn -0.2191 -0.9619 0.1633
vn -0.8042 -0.4910 0.3348
vn -0.0577 -0.9882 0.1419
vn -0.4096 -0.9119 0.0255
vn -0.2789 -0.9076 0.3138
vn 0.5077 -0.5036 -0.6990
vn 0.5325 -0.6578 -0.5327
vn 0.5221 -0.0133 0.8528
vn 0.3576 0.5457 0.7579
vn 0.3174 0.1380 0.9382
vn -0.3873 -0.2836 0.8773
vn -0.7027 -0.6006 0.3813
vn -0.4368 0.5567 0.7066
vn -0.5754 0.2305 0.7848
vn -0.4923 0.4758 0.7289
vn 0.1438 0.7488 0.6470
vn 0.3306 0.5486 0.7680
vn 0.4981 0.1316 -0.8571
vn -0.5034 0.5204 0.6898
vn 0.3745 0.5578 0.7407
vn 0.1617 0.9496 0.2686
vn -0.8083 0.2791 0.5184
vn -0.0497 0.9624 -0.2670
vn 0.4630 -0.8850 -0.0495
vn 0.3465 0.3788 0.8581
vn 0.4579 0.8847 0.0872
vn 0.2341 0.9655 0.1139
vn -0.0192 0.9956 -0.0915
vn -0.1801 0.9531 0.2433
vn -0.4649 0.8844 0.0418
vn -0.2759 -0.9576 -0.0834
vn -0.2353 -0.9453 -0.2259
vn -0.0587 -0.9907 0.1230
vn -0.0625 -0.9861 0.1536
vn -0.0394 -0.9896 0.1386
vn 0.0471 -0.9823 0.1813
vn -0.1532 -0.9650 -0.2129
vn -0.0880 -0.9898 0.1118
vn -0.5793 -0.7927 0.1897
vn -0.9557 -0.2130 0.2029
vn -0.0447 -0.9902 0.1321
vn -0.0873 -0.9897 0.1133
vn 0.1524 0.9382 0.3107
vn -0.1909 -0.9051 -0.3799
vn -0.3279 -0.8169 -0.4745
vn -0.0417 -0.9932 -0.1092
vn -0.9979 -0.0015 -0.0654
vn 0.5463 0.8025 -0.2399
vn 0.3456 0.9373 -0.0462
vn -0.7281 -0.1530 0.6682
vn 0.1802 -0.8435 0.5060
vn -0.2426 -0.9611 -0.1323
vn -0.7106 -0.5576 -0.4291
vn -0.5447 0.8341 0.0877
vn 0.1816 0.7215 -0.6681
vn -0.1224 0.8324 -0.5404
vn -0.6079 -0.4680 0.6414
vn -0.2375 0.7851 -0.5720
vn -0.1601 0.7319 -0.6624
vn 0.1298 -0.9915 0.0124
vn -0.4978 -0.8389 -0.2202
vn 0.1292 -0.5820 -0.8029
vn 0.0570 -0.9810 -0.1855
vn -0.2783 -0.9529 -0.1207
vn -0.6924 0.6261 -0.3585
vn 0.0209 -0.9992 -0.0346
vn 0.9762 0.2140 0.0343
vn 0.8513 0.5237 0.0309
vn -0.9812 -0.0068 0.1927
vn -0.1862 -0.9825 0.0051
vn -0.9863 -0.0617 0.1529
vn 0.8875 0.3069 -0.3439
vn 0.9814 -0.0436 -0.1868
vn 0.4340 -0.8117 -0.3909
vn -0.7443 0.4333 0.5082
vn 0.7370 0.2963 -0.6075
vn -0.3531 -0.2411 0.9040
vn -0.0554 0.8654 0.4980
vn 0.0104 -0.8861 -0.4633
vn -0.0261 0.2029 0.9789
vn 0.9763 -0.0519 0.2100
vn -0.4351 -0.8554 -0.2812
vn 0.1217 0.9544 0.2726
vn -0.6846 0.0008 0.7289
vn 0.9387 -0.2924 0.1826
vn -0.9634 -0.0933 -0.2513
vn 0.9465 -0.2716 0.1743
vn 0.6915 -0.2545 0.6760
vn -0.6854 -0.1645 -0.7094
vn -0.4305 0.1032 -0.8967
vn -0.3351 0.4386 -0.8339
vn 0.2643 0.3982 -0.8784
vn -0.2707 0.5131 -0.8145
vn -0.0402 -0.9612 0.2728
vn 0.0934 -0.9702 0.2236
vn -0.0160 -0.2666 0.9637
vn 0.0304 -0.3256 0.9450
vn -0.1183 -0.9867 0.1112
vn -0.5345 -0.4906 0.6882
vn -0.3429 0.8836 0.3188
vn -0.4952 -0.0103 0.8687
vn -0.7481 -0.3447 0.5670
vn -0.2572 -0.9570 0.1340
vn -0.4126 -0.8657 0.2834
vn 0.3755 -0.8947 -0.2419
vn -0.7371 -0.3655 0.5685
vn 0.2480 -0.9483 -0.1981
vn 0.9230 -0.3408 -0.1788
vn 0.6870 0.7120 -0.1456
vn 0.7161 -0.6949 -0.0654
vn -0.9695 0.0963 -0.2256
vn -0.9777 0.0350 -0.2070
vn -0.6710 -0.7069 -0.2235
vn -0.7721 0.2068 -0.6009
vn -0.6464 -0.7036 -0.2952
vn -0.8306 -0.2251 -0.5094
vn 0.6580 -0.6186 0.4294
vn 0.9067 -0.2714 0.3228
vn 0.0094 -0.5795 -0.8149
vn -0.9464 0.1834 -0.2660
vn 0.8173 0.1457 -0.5575
vn -0.9708 0.1524 -0.1851
vn -0.8858 0.4641 -0.0039
vn -0.0725 -0.9439 0.3221
vn 0.2504 0.8635 -0.4378
vn -0.6918 -0.0427 -0.7208
vn 0.7577 0.1588 -0.6329
vn -0.0423 0.6081 -0.7927
vn -0.7827 -0.2916 0.5499
vn 0.4177 0.6863 -0.5954
vn 0.1225 -0.9663 0.2263
vn 0.0045 -0.3136 0.9495
vn -0.1395 -0.9629 -0.2311
vn 0.9597 0.1680 -0.2253
vn -0.0958 -0.9787 0.1813
vn -0.6176 -0.7513 -0.2326
vn -0.9482 -0.2631 -0.1783
vn -0.0519 0.0846 -0.9951
vn 0.0570 0.0468 -0.9973
vn 0.7499 -0.5570 -0.3570
vn -0.1103 -0.0881 -0.9900
vn 0.0149 -0.9983 -0.0570
vn -0.0167 -0.9979 -0.0630
vn -0.0591 -0.0183 -0.9981
vn 0.4090 0.4385 0.8003
vn -0.5120 -0.5150 -0.6874
vn 0.9469 0.0344 0.3196
vn 0.6888 0.7053 0.1678
vn -0.4870 0.7905 -0.3715
vn 0.0924 0.9957 0.0090
vn 0.8633 0.2546 0.4357
vn -0.2596 -0.8887 0.3779
vn -0.0242 0.2269 -0.9736
vn 0.0641 0.3666 -0.9282
vn 0.1872 0.5597 -0.8073
vn -0.1897 0.7679 -0.6119
vn -0.1161 0.8913 -0.4383
vn 0.3423 -0.3083 -0.8876
vn -0.0766 -0.4122 -0.9079
vn 0.1576 -0.9872 0.0263
vn -0.0069 0.6503 -0.7597
vn -0.0828 0.6453 -0.7594
vn -0.0617 -0.3772 -0.9241
vn -0.2492 -0.0263 -0.9681
vn -0.0278 0.1588 -0.9869
vn 0.0153 -0.5932 -0.8049
vn 0.3561 -0.1293 -0.9255
vn -0.2687 0.5253 -0.8074
vn 0.8149 0.5710 0.0992
vn -0.1181 0.7363 -0.6663
vn -0.9224 -0.0231 -0.3857
vn 0.0683 -0.8015 0.5941
vn 0.5022 -0.8579 -0.1085
vn 0.7288 0.4031 -0.5535
vn -0.8110 -0.2774 0.5151
vn 0.6416 0.5451 -0.5396
vn 0.0392 0.9651 -0.2590
vn -0.8384 0.5383 0.0854
vn 0.6878 -0.4928 -0.5330
vn -0.8665 0.3214 0.3819
vn -0.2025 0.8647 -0.4598
vn 0.5453 -0.5927 0.5927
vn -0.1020 -0.7651 0.6358
vn 0.5595 -0.3713 0.7410
vn 0.8374 -0.5155 0.1817
vn 0.2774 0.9495 -0.1468
vn -0.3422 -0.8272 -0.4457
vn -0.3553 0.1204 -0.9270
vn -0.3825 0.1093 -0.9175
vn 0.0793 0.4741 -0.8769
vn 0.9227 0.2743 -0.2708
vn 0.5396 0.8404 0.0509
vn -0.8238 -0.5479 -0.1455
vn -0.2875 -0.0449 -0.9567
vn -0.1045 -0.5511 -0.8279
vn -0.0489 -0.3090 -0.9498
vn 0.5925 -0.5945 0.5436
vn 0.1356 -0.6388 -0.7573
vn 0.1660 -0.4167 -0.8937
vn 0.3420 0.1422 -0.9289
vn -0.0154 -0.9989 -0.0449
vn 0.0067 -0.4354 -0.9002
vn 0.0347 0.3832 -0.9230
vn -0.1070 -0.0983 -0.9894
vn -0.3822 0.1962 -0.9030
vn -0.0156 0.5982 -0.8012
vn -0.2549 -0.9534 0.1614
vn 0.5163 0.5597 -0.6483
vn 0.6156 0.0376 -0.7872
vn -0.4869 0.1711 -0.8565
vn 0.4096 0.6399 -0.6502
vn -0.3722 0.2434 -0.8957
vn -0.4717 -0.6464 -0.5998
vn 0.1658 -0.0453 -0.9851
vn -0.1308 -0.2883 -0.9486
vn 0.2702 0.2281 -0.9354
vn 0.5772 -0.3022 -0.7586
vn 0.4952 0.2908 -0.8187
vn -0.1564 0.4663 -0.8707
vn -0.2995 0.4784 -0.8255
vn -0.1637 0.5583 -0.8133
vn 0.2665 -0.9335 -0.2398
vn -0.0781 0.1990 -0.9769
vn -0.3426 -0.1984 -0.9183
vn 0.1298 -0.8796 -0.4577
vn 0.1155 -0.9160 -0.3841
vn -0.3886 -0.1576 -0.9078
vn -0.2083 -0.1945 -0.9585
vn 0.0944 0.4215 -0.9019
vn -0.1121 0.4389 -0.8915
vn 0.5032 -0.6449 -0.5753
vn 0.6863 0.0403 -0.7262
vn 0.4743 0.5498 -0.6876
vn 0.3942 0.6432 -0.6565
vn -0.4057 0.4498 -0.7957
vn 0.7962 0.5626 -0.2228
vn -0.4583 0.2226 -0.8605
vn -0.3460 -0.2277 -0.9102
vn -0.6068 0.1240 -0.7851
vn -0.2256 0.3651 -0.9032
vn -0.0784 0.7439 -0.6637
vn 0.1637 0.7753 -0.6100
vn 0.1241 0.5320 -0.8376
vn 0.0367 -0.8048 -0.5924
vn 0.4522 -0.1491 -0.8793
vn -0.4345 -0.7122 -0.5513
vn 0.0526 0.6750 -0.7359
vn 0.2079 -0.9381 -0.2770
vn -0.4021 -0.7435 -0.5344
vn 0.0089 -0.9973 -0.0733
vn -0.0433 -0.8747 -0.4827
vn -0.1007 -0.9563 -0.2746
vn 0.5508 -0.8318 -0.0684
vn -0.1809 -0.6184 -0.7648
vn -0.6113 -0.6056 -0.5095
vn 0.0858 -0.9129 -0.3991
vn -0.8808 0.2590 -0.3964
vn -0.5182 0.7277 -0.4494
vn 0.3027 0.6231 -0.7212
vn -0.0682 -0.9977 0.0059
vn -0.0816 0.7080 -0.7015
vn 0.7287 0.1976 0.6557
vn -0.2746 -0.8468 0.4555
vn 0.7886 0.2940 -0.5401
vn -0.4236 -0.8792 -0.2182
vn -0.0875 -0.8291 -0.5523
vn -0.5048 -0.7615 -0.4065
vn -0.1909 -0.8937 -0.4061
vn 0.0898 -0.9061 -0.4135
vn -0.8686 -0.3484 -0.3523
vn -0.4993 0.8182 -0.2851
vn -0.1996 0.8394 -0.5056
vn -0.1772 0.9585 -0.2232
vn 0.0754 0.4472 -0.8912
vn -0.1319 -0.9734 -0.1876
vn 0.3240 -0.9366 0.1335
vn 0.2798 -0.9559 -0.0892
vn 0.3400 -0.9282 -0.1512
vn 0.6478 0.6667 -0.3687
vn -0.9151 0.3227 0.2418
vn -0.7188 0.6351 0.2829
vn -0.7256 0.6192 0.3000
vn -0.6057 0.6812 0.4112
vn -0.3069 0.9350 -0.1775
vn -0.6755 0.6264 0.3890
vn -0.2517 0.9603 0.1202
vn -0.0161 0.8477 -0.5302
vn -0.7687 0.1906 -0.6106
vn 0.0505 0.6357 -0.7703
vn -0.7449 -0.3840 -0.5455
vn -0.2703 0.9610 0.0587
vn -0.9498 0.2691 -0.1597
vn -0.3180 0.9211 -0.2248
vn 0.3583 -0.2395 -0.9024
vn -0.7378 -0.0457 -0.6735
vn -0.2757 0.6578 -0.7009
vn -0.7396 0.0572 0.6706
vn -0.7610 0.2052 -0.6154
vn -0.6617 0.6461 -0.3803
vn -0.0440 0.8915 -0.4509
vn 0.4093 0.4342 0.8024
vn -0.2459 0.8605 0.4462
vn -0.4162 0.8171 -0.3990
vn -0.5657 0.6414 -0.5183
vn -0.0939 0.8644 0.4940
vn -0.8208 0.5693 -0.0466
vn -0.1206 0.8603 0.4953
vn -0.2803 0.7782 0.5620
vn -0.5834 0.2270 -0.7799
vn -0.4576 -0.4036 -0.7923
vn -0.4219 0.7873 -0.4497
vn -0.0849 0.9068 0.4130
vn -0.4706 0.8820 -0.0241
vn 0.0219 0.7550 0.6554
vn 0.2905 0.7193 0.6310
vn -0.5508 0.7343 0.3968
vn -0.5393 0.8324 0.1275
vn 0.2345 0.8412 0.4873
vn 0.5714 -0.4837 0.6629
vn -0.5101 0.8503 -0.1292
vn -0.7960 0.5722 -0.1973
vn -0.1502 0.9490 0.2771
vn -0.3730 0.6955 0.6141
vn 0.0387 -0.2734 -0.9611
vn -0.4208 0.5877 -0.6910
vn 0.1834 0.5589 -0.8087
vn 0.1425 0.3166 -0.9378
vn 0.1179 0.2930 -0.9488
vn 0.0866 0.3040 -0.9487
vn 0.4825 0.4284 -0.7639
vn 0.0652 -0.4048 -0.9121
vn -0.0653 0.2066 -0.9763
vn -0.0277 -0.3822 -0.9236
vn -0.1611 0.0819 -0.9835
vn -0.0985 -0.3381 -0.9359
vn -0.3702 0.3134 -0.8745
vn -0.1920 0.0163 -0.9813
vn -0.4266 0.5535 -0.7153
vn 0.2735 0.9493 -0.1547
vn 0.0117 0.4049 -0.9143
vn 0.0006 0.8649 -0.5019
vn -0.9728 0.1043 -0.2067
vn -0.9718 -0.0906 0.2175
vn -0.8090 0.3060 -0.5018
vn -0.4323 0.8981 0.0813
vn -0.0268 0.8186 -0.5737
vn 0.1443 0.8097 -0.5689
vn -0.8572 0.1985 -0.4752
vn -0.5274 0.8485 -0.0432
vn -0.5871 0.8030 0.1024
vn -0.2339 0.9648 0.1203
vn 0.4396 0.6684 -0.6000
vn -0.4092 0.8213 0.3975
vn 0.2925 0.5438 -0.7866
vn -0.3216 0.7405 0.5902
vn -0.3161 0.9486 0.0122
vn -0.9002 0.1789 -0.3971
vn -0.2891 0.9570 0.0222
vn 0.6639 -0.3000 0.6850
vn 0.6539 -0.2429 -0.7165
vn 0.3798 -0.0189 -0.9249
vn 0.6363 -0.2948 0.7129
vn 0.6740 0.7370 -0.0508
vn 0.8502 -0.4001 0.3423
vn 0.2662 -0.9321 0.2456
vn 0.9876 -0.1148 0.1071
vn 0.9796 -0.1185 -0.1623
vn 0.9501 0.2629 0.1682
vn 0.1784 0.5899 -0.7876
vn 0.7583 0.5856 -0.2864
vn 0.9766 -0.0919 -0.1944
vn 0.9936 0.0901 0.0683
vn 0.2025 0.5741 0.7933
vn 0.2044 0.5992 0.7741
vn 0.1493 0.4813 0.8638
vn -0.0397 0.9025 -0.4288
vn 0.2339 0.8766 -0.4206
vn -0.1767 0.5056 0.8445
vn -0.0952 0.8788 0.4675
vn 0.0095 0.9548 0.2972
vn -0.2141 -0.1567 0.9642
vn -0.2457 0.2084 0.9467
vn -0.3213 -0.2678 0.9083
vn -0.5028 0.6529 0.5665
vn 0.2274 0.5794 0.7827
vn 0.2769 0.5736 0.7709
vn 0.8922 -0.1365 0.4305
vn -0.6668 0.6957 0.2671
vn -0.5601 0.2796 0.7798
vn -0.5257 -0.3052 0.7941
vn -0.3092 0.5161 0.7988
vn -0.1349 0.9555 0.2623
vn -0.2840 0.3296 0.9004
vn -0.1088 0.4668 0.8777
vn 0.0810 0.4096 0.9086
vn 0.1051 0.4299 0.8967
vn 0.3791 -0.0127 0.9252
vn 0.0888 0.3850 0.9186
vn -0.0744 0.2254 0.9714
vn 0.2499 -0.3022 0.9199
vn -0.2648 -0.1042 0.9587
vn 0.0650 -0.1349 0.9887
vn -0.3122 -0.5443 0.7786
vn -0.4919 -0.8582 -0.1464
vn -0.3283 -0.8156 -0.4765
vn 0.1025 -0.9508 -0.2922
vn -0.2764 -0.9287 -0.2472
vn 0.0519 -0.9183 -0.3924
vn 0.0494 -0.8564 -0.5140
vn -0.4206 -0.3386 -0.8417
vn -0.4378 -0.8319 -0.3409
vn -0.3288 -0.7501 -0.5737
vn -0.4577 -0.7435 -0.4876
vn -0.1953 -0.9806 -0.0184
vn -0.6071 -0.7946 -0.0073
vn -0.4685 -0.8731 -0.1347
vn -0.0817 -0.9732 -0.2149
vn 0.2242 -0.9651 -0.1352
vn -0.7715 -0.6363 0.0012
vn -0.4151 -0.7193 0.5571
vn -0.0986 -0.9366 -0.3364
vn -0.1364 -0.9167 0.3756
vn 0.8595 0.1387 0.4920
vn -0.3217 -0.9346 -0.1518
vn -0.3442 -0.9388 0.0134
vn -0.7101 -0.2858 0.6435
vn 0.0330 -0.9984 -0.0449
vn 0.2415 -0.7668 -0.5947
vn 0.1534 -0.9598 -0.2350
vn -0.5516 -0.7050 -0.4458
vn -0.0602 -0.8264 -0.5599
vn -0.2722 -0.5690 -0.7760
vn 0.0692 -0.7540 -0.6532
vn -0.3577 -0.5483 0.7559
vn -0.4228 -0.7562 0.4994
vn -0.2507 -0.9605 0.1212
vn -0.4164 -0.4841 0.7696
vn -0.4070 -0.8733 0.2677
vn -0.5388 -0.8410 -0.0495
vn -0.3156 -0.9448 0.0887
vn -0.5137 -0.8495 0.1203
vn -0.6365 -0.6842 0.3560
vn -0.5397 -0.3512 -0.7651
vn -0.5897 -0.2263 -0.7753
vn -0.1858 -0.6612 -0.7268
vn -0.3763 0.3941 -0.8385
vn -0.0610 0.9937 -0.0940
vn 0.2448 0.9577 -0.1513
vn 0.3673 0.9222 -0.1212
vn 0.5603 0.7837 -0.2682
vn 0.1708 0.7773 0.6055
vn -0.2647 0.8755 0.4042
vn -0.2949 0.9041 0.3091
vn 0.0433 0.7498 0.6602
vn -0.8366 0.5441 -0.0629
vn -0.1654 -0.0677 0.9839
vn -0.4781 -0.1000 0.8726
vn -0.6466 0.0509 0.7611
vn -0.7384 -0.1249 0.6627
vn -0.3013 0.9391 0.1655
vn -0.3712 0.9258 -0.0708
vn -0.5538 0.8207 0.1404
vn -0.8777 0.2142 0.4288
vn -0.2183 0.9280 0.3019
vn -0.3619 0.7910 0.4932
vn -0.7277 0.1820 0.6613
vn -0.2373 0.9433 0.2320
vn -0.2967 -0.5238 -0.7985
vn -0.0670 0.7140 0.6969
vn 0.1643 0.9721 0.1676
vn -0.7000 0.3153 -0.6407
vn -0.3977 -0.5730 -0.7166
vn -0.7058 0.3199 0.6321
vn -0.8437 0.2039 0.4966
vn -0.8217 0.2601 -0.5071
vn -0.7309 0.5859 0.3499
vn -0.6089 0.4832 -0.6291
vn -0.6485 0.7608 0.0259
vn -0.5846 0.4849 -0.6505
vn -0.3070 0.8150 -0.4915
vn -0.3702 0.9277 0.0487
vn -0.0001 0.3137 -0.9495
vn -0.7390 0.3226 -0.5914
vn -0.3002 0.8880 -0.3484
vn -0.7063 0.7076 0.0219
vn -0.6357 0.4301 -0.6411
vn -0.3486 0.2171 -0.9118
vn -0.7409 -0.4541 -0.4949
vn -0.4687 -0.6265 -0.6228
vn -0.8865 0.4183 0.1978
vn -0.7425 -0.5817 -0.3321
vn -0.2333 0.0349 0.9718
vn -0.0939 0.5952 -0.7981
vn 0.4240 -0.7904 -0.4422
vn 0.1582 0.5940 0.7888
vn 0.1839 0.5286 0.8287
vn -0.7311 0.1776 0.6588
vn -0.5661 0.1798 0.8045
vn -0.0568 0.6962 -0.7156
vn -0.8879 0.2136 0.4076
vn -0.9627 -0.1890 0.1935
vn -0.9668 -0.2165 0.1359
vn -0.8833 -0.4434 0.1518
vn -0.8817 0.0043 0.4718
vn -0.5128 -0.3195 0.7968
vn -0.8142 0.5664 -0.1270
vn -0.4643 -0.3153 0.8277
vn -0.4045 0.0466 0.9133
vn -0.9588 -0.2798 -0.0487
vn -0.1904 -0.9788 0.0755
vn 0.2308 -0.7539 0.6150
vn 0.6685 -0.5566 0.4933
vn 0.1701 -0.9305 -0.3245
vn 0.2047 0.0017 0.9788
vn 0.6812 0.6133 0.3998
vn 0.4552 0.1690 0.8742
vn -0.0020 -0.9950 -0.0995
vn 0.1629 -0.9817 0.0986
vn 0.8926 0.4479 -0.0517
vn -0.5367 0.2620 -0.8021
vn -0.0630 0.0428 -0.9971
vn 0.3692 0.0560 0.9277
vn 0.3947 -0.6209 0.6773
vn -0.6341 -0.4388 -0.6367
vn -0.6407 -0.6056 0.4720
vn -0.8249 0.5078 -0.2485
vn -0.2601 -0.9625 0.0773
vn -0.6310 -0.6041 0.4867
vn -0.7702 -0.0306 0.6371
vn -0.4683 0.6834 -0.5600
vn -0.1005 0.9240 -0.3689
vn 0.3345 0.9406 -0.0581
vn 0.4207 0.9070 -0.0179
vn -0.0775 -0.1446 0.9865
vn -0.0777 -0.1438 0.9865
vn 0.0776 -0.9023 -0.4241
vn -0.6881 0.7003 -0.1900
vn -0.3627 0.9200 -0.1484
vn 0.3738 -0.8259 0.4221
vn -0.0777 -0.9968 -0.0174
vn -0.0333 -0.9992 0.0207
vn -0.0354 -0.9710 0.2363
vn 0.1419 -0.9836 0.1110
vn 0.0398 -0.9072 0.4189
vn -0.1371 -0.6241 0.7692
vn 0.3175 -0.7233 0.6133
vn -0.1308 -0.6229 0.7713
vn 0.3708 -0.9208 0.1212
vn 0.3218 -0.9276 -0.1899
vn 0.3162 -0.9364 0.1523
vn -0.1107 -0.5424 -0.8328
vn -0.6677 -0.4586 -0.5864
vn 0.9266 -0.3759 -0.0005
vn 0.2301 0.0574 0.9715
vn 0.2892 -0.1279 0.9487
vn 0.2555 0.0321 0.9663
vn 0.4954 -0.0900 0.8640
vn 0.6087 0.2284 0.7598
vn 0.3292 0.2439 0.9122
vn 0.1235 0.2652 0.9563
vn -0.1966 -0.9711 -0.1355
vn 0.0241 -0.9917 -0.1265
vn 0.0051 -0.9258 -0.3780
vn -0.1483 -0.8692 -0.4716
vn 0.1311 -0.9040 -0.4070
vn 0.8554 0.4947 0.1533
vn -0.5197 0.8540 0.0265
vn -0.0056 0.8452 -0.5345
vn -0.0725 0.5452 -0.8351
vn -0.4464 0.1668 -0.8791
vn -0.3548 0.2441 -0.9025
vn -0.8629 -0.3468 0.3676
vn 0.2118 -0.7822 0.5859
vn -0.3095 -0.6432 -0.7003
vn -0.7278 -0.2224 0.6487
vn -0.5173 0.4527 -0.7263
vn -0.7012 -0.6284 0.3368
usemtl None
s off
f 1//1 2//1 3//1
f 4//2 5//2 6//2
f 7//3 8//3 9//3
f 7//4 9//4 10//4
f 11//5 12//5 13//5
f 14//6 15//6 16//6
f 15//7 14//7 17//7
f 18//8 19//8 20//8
f 21//9 2//9 1//9
f 22//10 12//10 11//10
f 23//11 24//11 16//11
f 25//12 26//12 27//12
f 28//13 2//13 21//13
f 29//14 22//14 30//14
f 31//15 30//15 32//15
f 25//16 33//16 26//16
f 34//17 35//17 36//17
f 29//18 37//18 22//18
f 38//19 23//19 15//19
f 39//20 40//20 20//20
f 41//21 25//21 42//21
f 43//22 44//22 45//22
f 46//23 28//23 47//23
f 43//24 45//24 48//24
f 49//25 37//25 29//25
f 50//26 51//26 22//26
f 52//27 7//27 53//27
f 53//28 34//28 52//28
f 53//29 54//29 35//29
f 55//30 56//30 54//30
f 57//31 37//31 49//31
f 57//32 58//32 37//32
f 59//33 55//33 54//33
f 60//34 61//34 62//34
f 63//35 42//35 64//35
f 64//36 42//36 65//36
f 58//37 66//37 67//37
f 68//38 69//38 70//38
f 71//39 72//39 73//39
f 74//40 75//40 66//40
f 75//41 71//41 73//41
f 75//42 76//42 71//42
f 77//43 78//43 79//43
f 60//44 74//44 80//44
f 69//45 68//45 44//45
f 81//46 82//46 83//46
f 64//47 65//47 84//47
f 84//48 65//48 85//48
f 65//49 86//49 85//49
f 59//50 79//50 87//50
f 88//51 89//51 90//51
f 90//52 91//52 88//52
f 91//53 92//53 88//53
f 88//54 92//54 93//54
f 94//55 95//55 96//55
f 97//56 98//56 99//56
f 100//57 101//57 102//57
f 100//58 102//58 103//58
f 98//59 97//59 104//59
f 90//60 105//60 86//60
f 106//61 107//61 108//61
f 90//62 86//62 91//62
f 109//63 85//63 105//63
f 105//64 85//64 86//64
f 110//65 84//65 109//65
f 95//66 63//66 64//66
f 95//67 64//67 96//67
f 64//68 84//68 96//68
f 96//69 110//69 111//69
f 111//70 94//70 96//70
f 101//71 110//71 112//71
f 110//72 109//72 112//72
f 84//73 85//73 113//73
f 113//74 85//74 109//74
f 109//75 84//75 113//75
f 92//76 114//76 93//76
f 115//77 116//77 117//77
f 118//78 90//78 89//78
f 119//79 116//79 115//79
f 89//80 87//80 79//80
f 120//81 77//81 79//81
f 79//82 59//82 120//82
f 82//83 81//83 121//83
f 60//84 80//84 61//84
f 122//85 123//85 74//85
f 122//86 83//86 123//86
f 60//87 122//87 74//87
f 81//88 83//88 122//88
f 123//89 124//89 76//89
f 77//90 125//90 78//90
f 123//91 76//91 75//91
f 123//92 75//92 74//92
f 75//93 73//93 66//93
f 80//94 74//94 126//94
f 126//95 74//95 66//95
f 58//96 126//96 66//96
f 50//97 67//97 73//97
f 120//98 73//98 72//98
f 55//99 59//99 87//99
f 127//100 128//100 129//100
f 130//101 131//101 40//101
f 63//102 121//102 42//102
f 132//103 133//103 134//103
f 135//104 47//104 136//104
f 132//105 137//105 133//105
f 138//106 137//106 132//106
f 43//107 48//107 139//107
f 139//108 48//108 140//108
f 141//109 128//109 127//109
f 44//110 70//110 138//110
f 70//111 108//111 107//111
f 106//112 108//112 119//112
f 106//113 119//113 142//113
f 70//114 69//114 108//114
f 137//115 117//115 143//115
f 144//116 138//116 132//116
f 145//117 129//117 146//117
f 144//118 132//118 130//118
f 144//119 130//119 140//119
f 147//120 133//120 137//120
f 136//121 140//121 130//121
f 147//122 134//122 133//122
f 132//123 131//123 130//123
f 131//124 132//124 134//124
f 145//125 148//125 129//125
f 82//126 121//126 63//126
f 149//127 62//127 61//127
f 151//128 153//128 150//128
f 38//129 154//129 151//129
f 155//130 156//130 157//130
f 158//131 159//131 40//131
f 160//132 161//132 162//132
f 145//133 163//133 148//133
f 38//134 151//134 150//134
f 162//135 164//135 157//135
f 165//136 166//136 167//136
f 161//137 38//137 168//137
f 169//138 38//138 161//138
f 169//139 161//139 160//139
f 170//140 171//140 172//140
f 169//141 149//141 38//141
f 169//142 62//142 149//142
f 169//143 160//143 62//143
f 62//144 160//144 156//144
f 156//145 155//145 62//145
f 121//146 173//146 41//146
f 42//147 121//147 41//147
f 174//148 167//148 166//148
f 166//149 165//149 145//149
f 146//150 166//150 145//150
f 134//151 175//151 131//151
f 176//152 177//152 56//152
f 175//153 177//153 176//153
f 82//154 63//154 178//154
f 155//155 60//155 62//155
f 179//156 126//156 180//156
f 181//157 126//157 149//157
f 58//158 180//158 126//158
f 120//159 50//159 73//159
f 55//160 176//160 56//160
f 182//161 183//161 184//161
f 58//162 57//162 180//162
f 56//163 177//163 185//163
f 53//164 51//164 50//164
f 152//165 186//165 31//165
f 34//166 53//166 35//166
f 174//167 187//167 182//167
f 185//168 28//168 21//168
f 56//169 185//169 188//169
f 54//170 56//170 189//170
f 54//171 189//171 35//171
f 50//172 22//172 37//172
f 190//173 49//173 29//173
f 162//174 161//174 164//174
f 157//175 164//175 171//175
f 135//176 40//176 47//176
f 47//177 40//177 39//177
f 47//178 39//178 191//178
f 159//179 18//179 40//179
f 192//180 187//180 146//180
f 161//181 168//181 164//181
f 168//182 38//182 15//182
f 38//183 150//183 23//183
f 47//184 191//184 46//184
f 168//185 15//185 164//185
f 188//186 185//186 21//186
f 25//187 27//187 42//187
f 164//188 33//188 172//188
f 15//189 17//189 164//189
f 24//190 31//190 32//190
f 7//191 10//191 193//191
f 189//192 56//192 188//192
f 192//193 194//193 195//193
f 194//194 192//194 196//194
f 42//195 197//195 198//195
f 23//196 16//196 15//196
f 30//197 22//197 11//197
f 7//198 52//198 8//198
f 36//199 199//199 34//199
f 195//200 194//200 200//200
f 1//201 3//201 201//201
f 199//202 36//202 202//202
f 204//203 206//203 203//203
f 42//204 207//204 197//204
f 20//205 19//205 208//205
f 39//206 194//206 209//206
f 20//207 194//207 39//207
f 3//208 210//208 211//208
f 212//209 213//209 214//209
f 215//210 216//210 217//210
f 210//211 217//211 216//211
f 218//212 219//212 220//212
f 218//213 221//213 214//213
f 218//214 220//214 221//214
f 222//215 223//215 216//215
f 215//216 222//216 216//216
f 214//217 224//217 222//217
f 220//218 225//218 226//218
f 227//219 223//219 222//219
f 228//220 229//220 230//220
f 231//221 232//221 230//221
f 233//222 234//222 224//222
f 228//223 233//223 224//223
f 100//224 103//224 235//224
f 236//225 100//225 235//225
f 237//226 238//226 239//226
f 237//227 239//227 240//227
f 240//228 241//228 237//228
f 240//229 239//229 241//229
f 237//230 241//230 238//230
f 238//231 233//231 232//231
f 242//232 233//232 241//232
f 242//233 234//233 233//233
f 234//234 232//234 231//234
f 231//235 227//235 234//235
f 232//236 234//236 242//236
f 243//237 100//237 236//237
f 236//238 244//238 243//238
f 230//239 232//239 233//239
f 233//240 228//240 230//240
f 229//241 228//241 224//241
f 230//242 229//242 226//242
f 245//243 230//243 225//243
f 226//244 225//244 230//244
f 220//245 226//245 229//245
f 229//246 224//246 214//246
f 221//247 229//247 214//247
f 100//248 243//248 111//248
f 221//249 220//249 229//249
f 236//250 246//250 244//250
f 214//251 222//251 215//251
f 210//252 216//252 223//252
f 215//253 212//253 214//253
f 247//254 211//254 219//254
f 213//255 247//255 218//255
f 213//256 218//256 214//256
f 248//257 211//257 247//257
f 213//258 248//258 247//258
f 249//259 250//259 248//259
f 251//260 46//260 212//260
f 251//261 212//261 215//261
f 209//262 252//262 253//262
f 244//263 246//263 254//263
f 252//264 255//264 256//264
f 208//265 257//265 200//265
f 208//266 258//266 257//266
f 146//267 174//267 166//267
f 145//268 165//268 259//268
f 243//269 260//269 104//269
f 148//270 163//270 129//270
f 182//271 184//271 174//271
f 187//272 183//272 182//272
f 141//273 261//273 128//273
f 243//274 244//274 260//274
f 262//275 192//275 195//275
f 262//276 187//276 192//276
f 196//277 128//277 261//277
f 255//278 194//278 196//278
f 20//279 200//279 194//279
f 20//280 208//280 200//280
f 253//281 263//281 264//281
f 252//282 263//282 253//282
f 209//283 255//283 252//283
f 209//284 253//284 264//284
f 213//285 212//285 46//285
f 46//286 249//286 213//286
f 264//287 250//287 249//287
f 236//288 254//288 246//288
f 249//289 248//289 213//289
f 251//290 215//290 217//290
f 2//291 217//291 210//291
f 201//292 3//292 211//292
f 3//293 2//293 210//293
f 251//294 217//294 2//294
f 243//295 104//295 97//295
f 252//296 265//296 263//296
f 265//297 266//297 188//297
f 266//298 267//298 268//298
f 202//299 36//299 269//299
f 35//300 270//300 36//300
f 97//301 99//301 243//301
f 271//302 272//302 273//302
f 274//303 275//303 6//303
f 269//304 36//304 276//304
f 276//305 36//305 270//305
f 272//306 277//306 273//306
f 272//307 269//307 277//307
f 269//308 276//308 277//308
f 271//309 278//309 272//309
f 208//310 279//310 280//310
f 281//311 282//311 283//311
f 284//312 285//312 286//312
f 283//313 286//313 287//313
f 283//314 287//314 281//314
f 288//315 4//315 281//315
f 274//316 6//316 289//316
f 285//317 290//317 286//317
f 281//318 4//318 275//318
f 285//319 289//319 290//319
f 291//320 292//320 290//320
f 287//321 292//321 288//321
f 6//322 290//322 289//322
f 281//323 287//323 288//323
f 286//324 290//324 287//324
f 285//325 278//325 293//325
f 293//326 275//326 274//326
f 285//327 293//327 274//327
f 274//328 289//328 285//328
f 283//329 294//329 286//329
f 207//330 295//330 197//330
f 207//331 296//331 297//331
f 207//332 297//332 282//332
f 282//333 297//333 283//333
f 6//334 298//334 290//334
f 284//335 286//335 294//335
f 295//336 282//336 281//336
f 295//337 207//337 282//337
f 299//338 300//338 19//338
f 299//339 301//339 300//339
f 293//340 278//340 271//340
f 300//341 208//341 19//341
f 300//342 279//342 208//342
f 279//343 267//343 280//343
f 275//344 4//344 6//344
f 299//345 273//345 302//345
f 302//346 276//346 303//346
f 278//347 269//347 272//347
f 278//348 202//348 269//348
f 276//349 270//349 303//349
f 304//350 298//350 6//350
f 294//351 283//351 52//351
f 297//352 9//352 8//352
f 305//353 306//353 205//353
f 193//354 10//354 307//354
f 308//355 309//355 310//355
f 311//356 312//356 313//356
f 314//357 308//357 315//357
f 314//358 313//358 308//358
f 307//359 315//359 308//359
f 297//360 314//360 315//360
f 315//361 307//361 9//361
f 316//362 310//362 317//362
f 204//363 316//363 317//363
f 310//364 318//364 319//364
f 4//365 288//365 5//365
f 317//366 310//366 309//366
f 320//367 14//367 317//367
f 321//368 320//368 309//368
f 322//369 320//369 321//369
f 14//370 16//370 317//370
f 320//371 317//371 309//371
f 319//372 307//372 308//372
f 319//373 308//373 310//373
f 296//374 314//374 297//374
f 297//375 315//375 9//375
f 307//376 10//376 9//376
f 319//377 193//377 307//377
f 204//378 317//378 205//378
f 12//379 316//379 13//379
f 305//380 205//380 317//380
f 16//381 305//381 317//381
f 306//382 323//382 205//382
f 290//383 298//383 304//383
f 324//384 319//384 318//384
f 324//385 193//385 319//385
f 8//386 283//386 297//386
f 273//387 299//387 325//387
f 258//388 208//388 280//388
f 5//389 326//389 304//389
f 270//390 268//390 303//390
f 209//391 194//391 255//391
f 191//392 264//392 249//392
f 191//393 249//393 46//393
f 191//394 209//394 264//394
f 209//395 191//395 39//395
f 327//396 326//396 5//396
f 325//397 299//397 19//397
f 207//398 27//398 296//398
f 322//399 14//399 320//399
f 30//400 323//400 32//400
f 30//401 206//401 205//401
f 8//402 52//402 283//402
f 6//403 5//403 304//403
f 250//404 263//404 1//404
f 28//405 251//405 2//405
f 328//406 304//406 326//406
f 328//407 291//407 304//407
f 42//408 27//408 207//408
f 296//409 27//409 311//409
f 27//410 26//410 311//410
f 33//411 329//411 26//411
f 17//412 14//412 322//412
f 24//413 330//413 16//413
f 11//414 206//414 30//414
f 12//415 324//415 318//415
f 22//416 324//416 12//416
f 268//417 188//417 266//417
f 174//418 146//418 187//418
f 128//419 146//419 129//419
f 192//420 146//420 196//420
f 128//421 196//421 146//421
f 331//422 129//422 163//422
f 331//423 163//423 145//423
f 167//424 174//424 259//424
f 165//425 167//425 259//425
f 187//426 184//426 183//426
f 187//427 262//427 195//427
f 195//428 184//428 187//428
f 331//429 184//429 195//429
f 331//430 141//430 127//430
f 127//431 129//431 331//431
f 145//432 259//432 331//432
f 184//433 259//433 174//433
f 184//434 331//434 259//434
f 200//435 331//435 195//435
f 331//436 200//436 141//436
f 304//437 291//437 290//437
f 5//438 288//438 292//438
f 326//439 327//439 292//439
f 292//440 327//440 5//440
f 326//441 292//441 291//441
f 328//442 326//442 291//442
f 290//443 292//443 287//443
f 254//444 236//444 103//444
f 103//445 98//445 244//445
f 254//446 103//446 244//446
f 98//447 104//447 260//447
f 98//448 260//448 244//448
f 99//449 98//449 94//449
f 236//450 235//450 103//450
f 103//451 94//451 98//451
f 94//452 111//452 99//452
f 111//453 243//453 99//453
f 144//454 140//454 48//454
f 44//455 144//455 48//455
f 138//456 144//456 44//456
f 138//457 117//457 137//457
f 119//458 138//458 142//458
f 138//459 119//459 115//459
f 138//460 70//460 142//460
f 138//461 115//461 117//461
f 116//462 119//462 108//462
f 70//463 106//463 142//463
f 106//464 70//464 107//464
f 68//465 70//465 44//465
f 44//466 48//466 45//466
f 300//467 301//467 279//467
f 332//468 199//468 202//468
f 267//469 303//469 268//469
f 267//470 279//470 303//470
f 279//471 301//471 303//471
f 301//472 302//472 303//472
f 267//473 266//473 280//473
f 299//474 302//474 301//474
f 277//475 276//475 302//475
f 277//476 302//476 273//476
f 265//477 280//477 266//477
f 258//478 280//478 265//478
f 248//479 250//479 201//479
f 250//480 264//480 263//480
f 201//481 250//481 1//481
f 21//482 1//482 188//482
f 188//483 263//483 265//483
f 270//484 189//484 268//484
f 218//485 247//485 219//485
f 220//486 219//486 225//486
f 201//487 211//487 248//487
f 333//488 257//488 258//488
f 257//489 333//489 141//489
f 141//490 333//490 261//490
f 257//491 141//491 200//491
f 210//492 219//492 211//492
f 219//493 210//493 223//493
f 225//494 219//494 223//494
f 245//495 223//495 227//495
f 245//496 225//496 223//496
f 227//497 231//497 245//497
f 230//498 245//498 231//498
f 232//499 242//499 238//499
f 239//500 242//500 241//500
f 238//501 242//501 239//501
f 238//502 241//502 233//502
f 222//503 224//503 227//503
f 234//504 227//504 224//504
f 28//505 46//505 251//505
f 334//506 134//506 147//506
f 47//507 335//507 336//507
f 336//508 136//508 47//508
f 336//509 334//509 147//509
f 147//510 143//510 336//510
f 137//511 143//511 147//511
f 263//512 188//512 1//512
f 265//513 252//513 256//513
f 261//514 256//514 255//514
f 255//515 196//515 261//515
f 55//516 87//516 337//516
f 93//517 337//517 87//517
f 93//518 87//518 88//518
f 189//519 270//519 35//519
f 188//520 268//520 189//520
f 89//521 88//521 87//521
f 53//522 120//522 59//522
f 54//523 53//523 59//523
f 89//524 79//524 78//524
f 89//525 78//525 109//525
f 118//526 105//526 90//526
f 94//527 103//527 338//527
f 103//528 102//528 338//528
f 112//529 338//529 102//529
f 101//530 112//530 102//530
f 94//531 338//531 95//531
f 95//532 338//532 125//532
f 178//533 63//533 95//533
f 125//534 178//534 95//534
f 338//535 78//535 125//535
f 72//536 77//536 120//536
f 71//537 339//537 72//537
f 77//538 339//538 71//538
f 72//539 339//539 77//539
f 124//540 71//540 76//540
f 125//541 77//541 71//541
f 125//542 71//542 124//542
f 83//543 124//543 123//543
f 124//544 178//544 125//544
f 83//545 178//545 124//545
f 83//546 82//546 178//546
f 172//547 171//547 164//547
f 33//548 164//548 340//548
f 17//549 340//549 164//549
f 341//550 329//550 340//550
f 322//551 341//551 340//551
f 322//552 321//552 341//552
f 321//553 329//553 341//553
f 33//554 340//554 329//554
f 33//555 25//555 342//555
f 342//556 172//556 33//556
f 41//557 173//557 342//557
f 342//558 173//558 172//558
f 172//559 173//559 170//559
f 342//560 25//560 41//560
f 40//561 18//561 20//561
f 130//562 135//562 136//562
f 130//563 40//563 135//563
f 343//564 197//564 295//564
f 271//565 343//565 293//565
f 284//566 278//566 285//566
f 295//567 293//567 343//567
f 293//568 295//568 281//568
f 281//569 275//569 293//569
f 84//570 110//570 96//570
f 110//571 101//571 111//571
f 100//572 111//572 101//572
f 312//573 311//573 26//573
f 312//574 26//574 329//574
f 311//575 313//575 314//575
f 314//576 296//576 311//576
f 81//577 122//577 60//577
f 60//578 344//578 81//578
f 170//579 81//579 344//579
f 170//580 173//580 121//580
f 121//581 81//581 170//581
f 170//582 155//582 171//582
f 157//583 171//583 155//583
f 170//584 344//584 155//584
f 344//585 60//585 155//585
f 329//586 321//586 313//586
f 313//587 321//587 309//587
f 313//588 312//588 329//588
f 313//589 309//589 308//589
f 51//590 324//590 22//590
f 324//591 51//591 193//591
f 51//592 53//592 193//592
f 7//593 193//593 53//593
f 120//594 53//594 50//594
f 50//595 37//595 58//595
f 50//596 58//596 67//596
f 73//597 67//597 66//597
f 29//598 30//598 31//598
f 345//599 346//599 347//599
f 348//600 347//600 346//600
f 346//601 349//601 348//601
f 349//602 350//602 348//602
f 348//603 350//603 49//603
f 347//604 348//604 49//604
f 29//605 345//605 190//605
f 29//606 186//606 345//606
f 351//607 186//607 352//607
f 346//608 186//608 351//608
f 152//609 149//609 186//609
f 179//610 351//610 352//610
f 353//611 306//611 305//611
f 350//612 354//612 57//612
f 49//613 350//613 57//613
f 353//614 305//614 16//614
f 306//615 355//615 323//615
f 349//616 346//616 351//616
f 350//617 349//617 351//617
f 330//618 355//618 16//618
f 186//619 29//619 31//619
f 316//620 356//620 13//620
f 204//621 356//621 316//621
f 13//622 356//622 357//622
f 356//623 203//623 357//623
f 358//624 11//624 13//624
f 357//625 359//625 358//625
f 205//626 323//626 30//626
f 204//627 203//627 356//627
f 206//628 358//628 359//628
f 203//629 206//629 359//629
f 357//630 358//630 13//630
f 330//631 32//631 323//631
f 330//632 323//632 355//632
f 351//633 179//633 354//633
f 24//634 32//634 330//634
f 180//635 354//635 179//635
f 316//636 318//636 310//636
f 179//637 352//637 186//637
f 346//638 345//638 186//638
f 180//639 57//639 354//639
f 186//640 149//640 179//640
f 149//641 126//641 179//641
f 359//642 357//642 203//642
f 351//643 354//643 350//643
f 24//644 23//644 150//644
f 24//645 153//645 31//645
f 150//646 153//646 24//646
f 153//647 152//647 31//647
f 149//648 61//648 181//648
f 347//649 190//649 345//649
f 181//650 61//650 80//650
f 181//651 80//651 126//651
f 69//652 44//652 139//652
f 65//653 42//653 198//653
f 114//654 92//654 159//654
f 143//655 117//655 116//655
f 136//656 336//656 360//656
f 185//657 47//657 28//657
f 334//658 336//658 335//658
f 55//659 337//659 114//659
f 19//660 159//660 325//660
f 197//661 343//661 271//661
f 256//662 333//662 265//662
f 332//663 294//663 52//663
f 202//664 278//664 284//664
f 131//665 176//665 361//665
f 361//666 40//666 131//666
f 362//667 306//667 353//667
f 154//668 152//668 151//668
f 16//669 362//669 353//669
f 162//670 156//670 160//670
f 151//671 152//671 153//671
f 38//672 149//672 154//672
f 204//673 205//673 206//673
f 12//674 318//674 316//674
f 78//675 338//675 109//675
f 338//676 112//676 109//676
f 109//677 105//677 118//677
f 118//678 89//678 109//678
f 17//679 322//679 340//679
f 358//680 206//680 11//680
f 347//681 49//681 190//681
f 43//682 139//682 44//682
f 139//683 360//683 69//683
f 360//684 108//684 69//684
f 159//685 86//685 198//685
f 86//686 65//686 198//686
f 86//687 159//687 91//687
f 159//688 158//688 114//688
f 91//689 159//689 92//689
f 158//690 361//690 114//690
f 108//691 360//691 116//691
f 360//692 336//692 143//692
f 116//693 360//693 143//693
f 139//694 140//694 360//694
f 140//695 136//695 360//695
f 185//696 335//696 47//696
f 335//697 185//697 334//697
f 185//698 177//698 134//698
f 334//699 185//699 134//699
f 177//700 175//700 134//700
f 93//701 114//701 337//701
f 114//702 361//702 55//702
f 361//703 176//703 55//703
f 18//704 159//704 19//704
f 159//705 198//705 325//705
f 271//706 273//706 198//706
f 273//707 325//707 198//707
f 198//708 197//708 271//708
f 261//709 333//709 256//709
f 333//710 258//710 265//710
f 34//711 199//711 52//711
f 199//712 332//712 52//712
f 294//713 332//713 284//713
f 332//714 202//714 284//714
f 131//715 175//715 176//715
f 361//716 158//716 40//716
f 362//717 355//717 306//717
f 154//718 149//718 152//718
f 16//719 355//719 362//719
f 162//720 157//720 156//720